<svg width="235" height="140" viewBox="0 0 235 140" fill="none" xmlns="http://www.w3.org/2000/svg">
<path d="M144.287 112.085C144.287 107.943 148.548 85.7692 153.546 62.6212C158.545 39.4732 167.679 14.3758 167.679 9.74615M144.287 112.085L153.546 110.867C153.546 110.867 158.42 107.455 161.831 103.069M144.287 112.085C144.287 115.111 92.0002 116.057 61.929 111.595M167.679 9.74615C167.679 5.11652 70.2136 1.94896 61.929 9.74615C53.6444 17.5433 36.588 92.1045 41.4613 104.288C42.774 107.57 50.8414 109.95 61.929 111.595M167.679 9.74615C167.679 9.74615 181.811 17.2998 182.055 23.3913M182.055 23.3913C182.299 29.4829 165.242 98.6834 161.831 103.069M182.055 23.3913C182.055 23.3913 194.969 46.5394 197.406 52.1437C199.843 57.7479 192.045 84.5509 190.34 88.2059C189.146 90.763 175.668 97.0176 167.679 100.544M161.831 103.069C161.831 103.069 164.249 102.058 167.679 100.544M61.929 111.595C62.9541 113.475 64.7597 114.764 65.7831 116.227M167.679 100.544C157.201 110.867 159.882 116.471 157.201 119.638C154.521 122.806 129.336 126.78 111.136 126.705C93.4162 126.631 65.0966 123.05 66.3149 119.638C66.8041 118.269 66.4696 117.209 65.7831 116.227M65.7831 116.227C65.7831 116.227 54.6343 117.128 48.0402 119.638C24.2196 128.708 78.3649 137.056 103.839 137.913C130.274 138.803 171.895 131.824 174.989 123.781C178.083 115.737 159.03 114.522 159.03 114.522" stroke="#333C6A" stroke-width="3.88902"/>
<path d="M183.761 48.3672L197.406 52.3876" stroke="#333C6A" stroke-width="2.2223" stroke-linecap="round"/>
<path d="M183.639 53.2402L197.406 57.2607" stroke="#333C6A" stroke-width="2.2223" stroke-linecap="round"/>
<path d="M183.151 58.2354L197.406 62.6213" stroke="#333C6A" stroke-width="2.2223" stroke-linecap="round"/>
<path d="M182.299 62.8657L196.431 67.1298" stroke="#333C6A" stroke-width="2.2223" stroke-linecap="round"/>
<path fill-rule="evenodd" clip-rule="evenodd" d="M69.7263 19.7369C59.7361 22.4172 49.7459 91.374 52.6699 93.567C55.5939 95.76 129.424 102.339 134.297 95.2726C135.581 93.4116 136.676 87.2066 138.103 79.1292L138.103 79.129C139.276 72.4855 140.673 64.5754 142.582 56.7738C144.473 49.0452 146.38 42.0522 147.968 36.2297C150.228 27.9425 151.841 22.0267 151.841 19.7369C151.841 15.8383 79.7166 17.0566 69.7263 19.7369ZM76.0179 58.5256C76.8617 58.5256 77.5457 59.2096 77.5457 60.0534C77.5457 61.9788 76.6723 63.4952 75.8915 64.4712C75.5945 64.8425 75.2984 65.1516 75.0434 65.3939C75.1247 65.7602 75.2447 66.2391 75.4169 66.8004C75.8397 68.1793 76.5704 70.0349 77.7966 71.9389C80.2218 75.7048 84.619 79.7282 92.6726 80.5955C100.283 81.415 106.611 78.5358 111.099 75.3716C113.339 73.7926 115.095 72.1593 116.289 70.9226C116.844 70.3472 117.276 69.8598 117.576 69.5071C117.472 69.1129 117.374 68.6087 117.339 68.0264C117.256 66.6023 117.558 64.7172 119.035 62.9121C119.569 62.2591 120.531 62.1628 121.184 62.6971C121.838 63.2315 121.934 64.194 121.399 64.8471C120.501 65.9447 120.342 67.0282 120.39 67.847C120.414 68.2662 120.495 68.6176 120.567 68.8583C120.603 68.9776 120.636 69.0664 120.657 69.119L120.659 69.1247L120.659 69.1251C120.686 69.1676 120.735 69.2396 120.805 69.3291C120.949 69.5105 121.172 69.7494 121.479 69.9662C122.05 70.3695 123.007 70.7714 124.556 70.3958C125.376 70.197 126.202 70.7006 126.401 71.5207C126.6 72.3407 126.096 73.1667 125.276 73.3655C122.805 73.9645 120.951 73.3345 119.716 72.4622C119.573 72.3617 119.441 72.2589 119.317 72.1559C119.075 72.4238 118.798 72.7224 118.487 73.045C117.191 74.3869 115.291 76.1552 112.86 77.8689C108.008 81.2899 100.944 84.5596 92.3454 83.6336C83.2471 82.6537 78.0793 78.0215 75.2276 73.5934C73.8153 71.4005 72.9795 69.2746 72.4955 67.6962C72.4338 67.495 72.3777 67.3024 72.3268 67.1193C72.1072 67.2062 71.8731 67.288 71.627 67.3592C70.0311 67.8212 67.7592 67.8589 65.9156 65.8309C65.348 65.2065 65.394 64.2403 66.0184 63.6727C66.6428 63.1051 67.609 63.1511 68.1766 63.7754C68.9718 64.6501 69.8664 64.6878 70.7773 64.4241C71.247 64.2881 71.6728 64.0777 71.9891 63.8927C72.1442 63.8019 72.2655 63.7216 72.344 63.6671C72.3831 63.64 72.411 63.6197 72.4267 63.608L72.4401 63.598L72.4684 63.5757L72.4976 63.5553L72.5026 63.5516C72.5116 63.545 72.5291 63.532 72.5539 63.5126C72.6038 63.4738 72.6823 63.4104 72.78 63.3241C72.977 63.1501 73.2422 62.8915 73.5055 62.5623C74.0441 61.8891 74.4901 61.0307 74.4901 60.0534C74.4901 59.2096 75.1741 58.5256 76.0179 58.5256ZM120.678 69.1712C120.679 69.173 120.679 69.1722 120.677 69.1688L120.678 69.1712ZM100.447 55.8942C98.2277 55.6723 96.4344 56.0135 95.0108 56.757C93.5883 57.4999 92.6489 58.5848 92.0383 59.6634C91.4341 60.7308 91.1425 61.8061 90.9989 62.596C90.9263 62.9952 90.8894 63.3334 90.8706 63.5779C90.8611 63.7005 90.8561 63.8005 90.8535 63.8738C90.8522 63.9105 90.8514 63.9407 90.851 63.9637L90.8507 63.993L90.8506 64.0036L90.8506 64.0078L90.8506 64.0097C90.8506 64.0105 90.8506 64.0114 92.3784 64.0114H90.8506C90.8506 64.8551 91.5346 65.5392 92.3784 65.5392C93.2198 65.5392 93.9023 64.859 93.9062 64.0186V64.0184L93.9062 64.0166C93.9063 64.0118 93.9066 64.0005 93.9072 63.9833C93.9084 63.9488 93.9112 63.8908 93.9172 63.8129C93.9292 63.6565 93.9542 63.4237 94.0053 63.1426C94.1091 62.5718 94.3122 61.8494 94.6975 61.1687C95.0765 60.4991 95.6214 59.8854 96.4253 59.4655C97.2282 59.0463 98.4035 58.7608 100.143 58.9347C100.982 59.0187 101.731 58.4061 101.815 57.5665C101.899 56.7269 101.286 55.9782 100.447 55.8942ZM87.0914 36.0513C88.6838 37.6149 90.5157 41.0484 92.2166 47.7542C92.4241 48.5721 93.2553 49.0669 94.0732 48.8595C94.8911 48.652 95.386 47.8208 95.1785 47.0029C93.4491 40.185 91.4527 36.0513 89.2322 33.871C88.0878 32.7473 86.839 32.0993 85.52 31.9373C84.212 31.7767 83.0027 32.1145 81.9617 32.6615C79.9391 33.7243 78.2962 35.7103 77.2147 37.2662C76.7861 37.8829 76.4244 38.4635 76.1413 38.945L73.7838 37.8448C73.0192 37.4879 72.1101 37.8185 71.7532 38.5832C71.3964 39.3478 71.727 40.2569 72.4916 40.6138L76.1466 42.3194L77.5078 42.9546L78.1654 41.6056L78.1656 41.6052L78.1658 41.6049L78.166 41.6044L78.1691 41.5982L78.1863 41.5638C78.2024 41.5317 78.2278 41.4819 78.2619 41.4165C78.3302 41.2855 78.4334 41.0923 78.5683 40.8532C78.839 40.3735 79.2329 39.7165 79.7238 39.0102C80.74 37.5482 82.0369 36.0738 83.383 35.3665C84.0263 35.0285 84.6085 34.904 85.1475 34.9702C85.6756 35.035 86.3293 35.3031 87.0914 36.0513ZM108.001 47.7109C109.701 41.0052 111.533 37.5716 113.126 36.0081C113.888 35.2598 114.542 34.9918 115.07 34.9269C115.609 34.8607 116.191 34.9852 116.834 35.3232C118.18 36.0305 119.477 37.5049 120.493 38.9669C120.984 39.6733 121.378 40.3302 121.649 40.8099C121.784 41.049 121.887 41.2423 121.955 41.3732C121.989 41.4387 122.015 41.4885 122.031 41.5205L122.048 41.5549L122.051 41.5611L122.051 41.5617L122.052 41.562L122.052 41.5623L122.709 42.9114L124.071 42.2762L127.726 40.5705C128.49 40.2137 128.821 39.3046 128.464 38.5399C128.107 37.7753 127.198 37.4447 126.433 37.8015L124.076 38.9017C123.793 38.4202 123.431 37.8397 123.002 37.223C121.921 35.667 120.278 33.681 118.255 32.6183C117.214 32.0713 116.005 31.7334 114.697 31.894C113.378 32.056 112.129 32.704 110.985 33.8277C108.764 36.008 106.768 40.1417 105.039 46.9596C104.831 47.7775 105.326 48.6087 106.144 48.8162C106.962 49.0237 107.793 48.5288 108.001 47.7109ZM65.8906 57.0709C65.8906 57.8955 65.2221 58.564 64.3974 58.564C63.5728 58.564 62.9043 57.8955 62.9043 57.0709C62.9043 56.2462 63.5728 55.5777 64.3974 55.5777C65.2221 55.5777 65.8906 56.2462 65.8906 57.0709ZM69.8428 56.1047C70.6675 56.1047 71.336 55.4362 71.336 54.6116C71.336 53.7869 70.6675 53.1184 69.8428 53.1184C69.0182 53.1184 68.3497 53.7869 68.3497 54.6116C68.3497 55.4362 69.0182 56.1047 69.8428 56.1047ZM70.2819 59.1789C70.2819 60.0036 69.6134 60.6721 68.7888 60.6721C67.9641 60.6721 67.2956 60.0036 67.2956 59.1789C67.2956 58.3543 67.9641 57.6858 68.7888 57.6858C69.6134 57.6858 70.2819 58.3543 70.2819 59.1789ZM130.798 65.0354C130.027 65.0354 129.401 64.41 129.401 63.6386C129.401 62.8671 130.027 62.2418 130.798 62.2418C131.57 62.2418 132.195 62.8671 132.195 63.6386C132.195 64.41 131.57 65.0354 130.798 65.0354ZM124.307 61.3378C124.307 62.1092 124.933 62.7346 125.704 62.7346C126.475 62.7346 127.101 62.1092 127.101 61.3378C127.101 60.5663 126.475 59.9409 125.704 59.9409C124.933 59.9409 124.307 60.5663 124.307 61.3378ZM126.69 67.0073C125.919 67.0073 125.293 66.3819 125.293 65.6105C125.293 64.839 125.919 64.2137 126.69 64.2137C127.461 64.2137 128.087 64.839 128.087 65.6105C128.087 66.3819 127.461 67.0073 126.69 67.0073Z" fill="#333C6A"/>
<circle cx="50.1112" cy="100.511" r="2.07114" fill="#333C6A"/>
<circle cx="58.6395" cy="102.46" r="2.07114" fill="#333C6A"/>
<circle cx="67.1678" cy="103.679" r="2.07114" fill="#333C6A"/>
<path d="M34.7754 35.3311L40.3554 37.0322L40.433 36.7778L40.487 36.5175L34.7754 35.3311ZM37.6946 76.9365L43.2378 78.754L46.8726 67.6676L41.3294 65.8501L37.6946 76.9365ZM44.2411 26.8071C46.1274 24.1953 45.5393 20.5488 42.9275 18.6625C40.3157 16.7762 36.6692 17.3643 34.7829 19.9761L44.2411 26.8071ZM30.5232 25.5767C27.8274 23.8125 24.2119 24.5677 22.4476 27.2635C20.6834 29.9593 21.4386 33.5748 24.1344 35.339L30.5232 25.5767ZM27.4084 31.8882C25.507 29.2874 21.8572 28.7205 19.2563 30.6219C16.6555 32.5234 16.0886 36.1732 17.99 38.774L27.4084 31.8882ZM27.9981 36.8903C25.3604 35.0404 21.7224 35.6791 19.8725 38.3168C18.0226 40.9545 18.6612 44.5925 21.299 46.4424L27.9981 36.8903ZM34.7754 35.3311C40.487 36.5175 40.4869 36.5183 40.4867 36.519C40.4867 36.5192 40.4865 36.5199 40.4864 36.5203C40.4863 36.5212 40.4861 36.5219 40.486 36.5225C40.4857 36.5238 40.4856 36.5246 40.4855 36.5249C40.4853 36.5256 40.4856 36.5245 40.4862 36.5218C40.4873 36.5162 40.49 36.5038 40.4941 36.4849C40.5023 36.447 40.5164 36.3832 40.5363 36.2958C40.5763 36.1209 40.6393 35.8535 40.7253 35.5137C40.8982 34.8306 41.1592 33.8743 41.5062 32.8015C42.2429 30.5241 43.2035 28.2438 44.2411 26.8071L34.7829 19.9761C32.6529 22.9253 31.2452 26.6148 30.4055 29.2107C29.9643 30.5745 29.6351 31.7807 29.4149 32.651C29.3043 33.0879 29.22 33.4448 29.1617 33.7001C29.1325 33.8279 29.1098 33.9306 29.0935 34.0055C29.0854 34.043 29.0788 34.0735 29.0739 34.0969C29.0714 34.1085 29.0693 34.1184 29.0676 34.1263C29.0668 34.1303 29.0661 34.1339 29.0654 34.137C29.0651 34.1385 29.0648 34.1399 29.0645 34.1412C29.0644 34.1419 29.0642 34.1427 29.0642 34.1431C29.064 34.1439 29.0638 34.1448 34.7754 35.3311ZM37.9698 30.4499L30.5232 25.5767L24.1344 35.339L31.581 40.2123L37.9698 30.4499ZM34.7754 35.3311C29.1954 33.63 29.1954 33.6301 29.1954 33.6301C29.1954 33.6302 29.1954 33.6302 29.1953 33.6303C29.1953 33.6305 29.1952 33.6307 29.1951 33.631C29.1949 33.6317 29.1946 33.6327 29.1942 33.634C29.1934 33.6366 29.1922 33.6405 29.1907 33.6456C29.1875 33.6559 29.1829 33.6712 29.1767 33.6913C29.1645 33.7316 29.1463 33.7911 29.1228 33.8683C29.0758 34.0225 29.0073 34.2472 28.9215 34.529C28.7498 35.0925 28.5085 35.8846 28.2302 36.7986C27.6737 38.6263 26.9688 40.9432 26.3762 42.8967L37.5407 46.2839C38.1317 44.336 38.8353 42.0234 39.3914 40.1968C39.6694 39.2837 39.9104 38.4924 40.082 37.9295C40.1677 37.648 40.2361 37.4236 40.283 37.2697C40.3065 37.1927 40.3246 37.1333 40.3368 37.0931C40.343 37.0731 40.3476 37.0578 40.3507 37.0476C40.3523 37.0425 40.3535 37.0386 40.3542 37.036C40.3546 37.0348 40.3549 37.0338 40.3551 37.0331C40.3552 37.0328 40.3553 37.0326 40.3554 37.0324C40.3554 37.0323 40.3554 37.0323 40.3554 37.0322C40.3554 37.0322 40.3554 37.0322 34.7754 35.3311ZM35.1227 39.6896C33.4308 38.5971 31.5315 36.7495 29.9136 34.9357C29.1414 34.07 28.4994 33.2873 28.0539 32.7255C27.8322 32.4458 27.6617 32.2241 27.5509 32.078C27.4955 32.0051 27.4553 31.9513 27.4311 31.9188C27.4191 31.9026 27.4111 31.8918 27.4072 31.8866C27.4053 31.884 27.4044 31.8828 27.4046 31.8831C27.4047 31.8832 27.4051 31.8837 27.4057 31.8846C27.406 31.885 27.4064 31.8855 27.4069 31.8861C27.4071 31.8864 27.4075 31.887 27.4076 31.8871C27.408 31.8877 27.4084 31.8882 22.6992 35.3311C17.99 38.774 17.9905 38.7746 17.9909 38.7753C17.9911 38.7755 17.9916 38.7762 17.992 38.7767C17.9927 38.7777 17.9935 38.7788 17.9944 38.78C17.9961 38.7823 17.9981 38.7851 18.0004 38.7882C18.005 38.7945 18.0107 38.8022 18.0176 38.8115C18.0312 38.83 18.0493 38.8544 18.0716 38.8845C18.1164 38.9446 18.1783 39.0272 18.2564 39.1302C18.4125 39.3358 18.6338 39.6234 18.9116 39.9738C19.4654 40.6723 20.254 41.6336 21.207 42.702C23.0397 44.7566 25.77 47.5385 28.7942 49.4911L35.1227 39.6896ZM26.2166 43.5603C26.0781 44.332 25.8715 45.2401 25.6044 46.3812C25.3482 47.4753 25.0421 48.7608 24.7653 50.0929C24.216 52.7365 23.6967 55.9406 23.8241 59.2232C23.9533 62.5512 24.7577 66.2336 27.0969 69.5644C29.4658 72.9374 33.0267 75.4061 37.6946 76.9365L41.3294 65.8501C38.5656 64.9439 37.2971 63.7881 36.6445 62.859C35.9622 61.8875 35.5531 60.5901 35.4824 58.7706C35.41 56.9059 35.7045 54.7951 36.1884 52.4664C36.4282 51.3124 36.6935 50.1974 36.9643 49.0405C37.2241 47.9306 37.5 46.737 37.7003 45.6203L26.2166 43.5603ZM32.792 38.8167C31.6442 38.651 30.4311 38.1923 29.4075 37.6857C28.9196 37.4444 28.5278 37.2186 28.272 37.0626C28.1452 36.9853 28.0553 36.9272 28.0072 36.8956C27.9833 36.8798 27.9701 36.8709 27.9683 36.8696C27.9674 36.869 27.9694 36.8704 27.9743 36.8738C27.9768 36.8755 27.98 36.8777 27.9839 36.8805C27.9859 36.8818 27.9881 36.8833 27.9904 36.885C27.9916 36.8858 27.9928 36.8867 27.9941 36.8876C27.9948 36.888 27.9958 36.8887 27.9961 36.8889C27.9971 36.8896 27.9981 36.8903 24.6485 41.6664C21.299 46.4424 21.3 46.4431 21.3011 46.4439C21.3014 46.4441 21.3025 46.4449 21.3032 46.4454C21.3047 46.4464 21.3062 46.4475 21.3078 46.4486C21.311 46.4508 21.3144 46.4532 21.318 46.4557C21.3252 46.4607 21.3333 46.4663 21.3422 46.4725C21.3601 46.4848 21.3814 46.4995 21.406 46.5162C21.4553 46.5497 21.5181 46.5919 21.5936 46.6416C21.7445 46.7409 21.9476 46.8711 22.1972 47.0233C22.694 47.3263 23.3881 47.7245 24.2334 48.1428C25.876 48.9555 28.3179 49.9588 31.1249 50.364L32.792 38.8167Z" fill="#333C6A"/>
<path d="M203.498 43.8595C203.498 43.8595 203.147 35.5749 199.979 31.189M203.498 43.8595L210.944 38.9862M203.498 43.8595C203.498 43.8595 204.263 49.2173 205.447 53.1187M168.166 63.3526C190.827 85.0386 205.447 62.1342 205.447 53.1187M205.447 53.1187C210.163 50.0737 215.574 43.8595 215.574 43.8595M205.447 53.1187C209.402 52.5477 213.624 50.1947 213.624 50.1947" stroke="#333C6A" stroke-width="11.6671" stroke-linecap="round"/>
<path d="M10.4904 16.3536C8.46937 14.4118 5.3841 14.1142 4.0464 15.3938C2.7087 16.6735 3.83161 19.8725 5.33521 21.0455C7.9446 23.0812 13.9272 23.3915 13.9272 23.3915C13.9272 23.3915 12.5303 18.3133 10.4904 16.3536Z" fill="#333C6A" stroke="#333C6A" stroke-width="2.77787" stroke-linecap="round"/>
<path d="M5.80189 31.3714C3.64775 31.3898 1.79185 32.8837 1.74394 34.3057C1.69602 35.7278 4.03191 36.8831 5.48862 36.7202C8.01664 36.4374 11.4721 33.394 11.4721 33.394C11.4721 33.394 7.97606 31.3529 5.80189 31.3714Z" fill="#333C6A" stroke="#333C6A" stroke-width="2.77787" stroke-linecap="round"/>
<path d="M212.188 76.4854C213.079 79.1425 215.676 80.8355 217.454 80.3211C219.232 79.8068 219.719 76.4515 218.93 74.7154C217.56 71.7026 212.402 68.6561 212.402 68.6561C212.402 68.6561 211.288 73.8037 212.188 76.4854Z" fill="#333C6A" stroke="#333C6A" stroke-width="2.77787" stroke-linecap="round"/>
<path d="M223.3 65.3478C225.217 66.3295 227.554 65.8653 228.255 64.6272C228.956 63.3891 227.421 61.2832 226.055 60.7528C223.684 59.8323 219.211 60.9287 219.211 60.9287C219.211 60.9287 221.364 64.3571 223.3 65.3478Z" fill="#333C6A" stroke="#333C6A" stroke-width="2.77787" stroke-linecap="round"/>
<path d="M209.589 0.129679C209.587 1.02279 209.432 6.35939 206.111 9.6799C202.77 13.0212 197.387 13.1575 196.545 13.1578C197.387 13.1582 202.77 13.2944 206.111 16.6358C209.432 19.9563 209.587 25.2929 209.589 26.186C209.591 25.2929 209.746 19.9563 213.067 16.6358C216.408 13.2944 221.791 13.1582 222.633 13.1578C222.478 13.1578 222.168 13.1531 221.744 13.1245C219.874 12.998 215.792 12.4046 213.067 9.6799C209.746 6.35939 209.591 1.02279 209.589 0.129679Z" fill="#333C6A"/>
<path d="M226.036 22.7459C226.035 23.333 225.933 26.8414 223.75 29.0243C221.553 31.2209 218.015 31.3105 217.461 31.3107C218.015 31.3109 221.553 31.4005 223.75 33.5971C225.933 35.7801 226.035 39.2884 226.036 39.8755C226.038 39.2884 226.14 35.7801 228.323 33.5971C230.519 31.4005 234.058 31.3109 234.612 31.3107C234.51 31.3107 234.306 31.3076 234.027 31.2888C232.798 31.2056 230.114 30.8155 228.323 29.0243C226.14 26.8414 226.038 23.333 226.036 22.7459Z" fill="#333C6A"/>
<path d="M14.171 75.4217C14.1689 76.3148 14.0137 81.6514 10.6931 84.9719C7.3518 88.3132 1.96908 88.4495 1.12661 88.4498C1.96908 88.4502 7.3518 88.5864 10.6931 91.9278C14.0137 95.2483 14.1689 100.585 14.171 101.478C14.1732 100.585 14.3284 95.2483 17.6489 91.9278C20.9903 88.5864 26.373 88.4502 27.2154 88.4498C27.0599 88.4498 26.7498 88.4451 26.3264 88.4165C24.4557 88.29 20.3736 87.6966 17.6489 84.9719C14.3284 81.6514 14.1732 76.3148 14.171 75.4217Z" fill="#333C6A"/>
<path d="M27.4513 100.719C27.45 101.306 27.3479 104.814 25.1649 106.997C22.9683 109.194 19.4297 109.283 18.8758 109.283C19.4297 109.284 22.9683 109.373 25.1649 111.57C27.3479 113.753 27.45 117.261 27.4513 117.848C27.4528 117.261 27.5548 113.753 29.7377 111.57C31.9344 109.373 35.473 109.284 36.0268 109.283C35.9246 109.283 35.7207 109.28 35.4424 109.261C34.2125 109.178 31.529 108.788 29.7377 106.997C27.5548 104.814 27.4528 101.306 27.4513 100.719Z" fill="#333C6A"/>
</svg>
