<svg width="268" height="160" viewBox="0 0 268 160" fill="none" xmlns="http://www.w3.org/2000/svg">
<path d="M164.354 127.782C164.354 123.059 169.211 97.7808 174.91 71.391C180.608 45.0013 191.021 16.3892 191.021 11.1112M164.354 127.782L174.91 126.393C174.91 126.393 180.465 122.504 184.354 117.504M164.354 127.782C164.354 131.232 104.744 132.31 70.4617 127.223M191.021 11.1112C191.021 5.8332 79.9065 2.22206 70.4617 11.1112C61.017 20.0003 41.5719 105.003 47.1276 118.893C48.6243 122.634 57.8214 125.348 70.4617 127.223M191.021 11.1112C191.021 11.1112 207.133 19.7226 207.411 26.6673M207.411 26.6673C207.689 33.612 188.243 112.504 184.354 117.504M207.411 26.6673C207.411 26.6673 222.133 53.0571 224.911 59.4462C227.689 65.8353 218.8 96.3919 216.856 100.559C215.495 103.474 200.129 110.604 191.021 114.625M184.354 117.504C184.354 117.504 187.111 116.351 191.021 114.625M70.4617 127.223C71.6304 129.367 73.6888 130.836 74.8555 132.504M191.021 114.625C179.076 126.393 182.132 132.782 179.076 136.393C176.021 140.004 147.309 144.535 126.56 144.449C106.359 144.365 74.073 140.282 75.4619 136.393C76.0195 134.832 75.6382 133.623 74.8555 132.504M74.8555 132.504C74.8555 132.504 62.1455 133.531 54.6279 136.393C27.4714 146.733 89.1994 156.25 118.241 157.227C148.378 158.242 195.828 150.286 199.355 141.116C202.882 131.946 181.161 130.56 181.161 130.56" stroke="#D83E58" stroke-width="3.88902"/>
<path d="M209.355 55.1411L224.912 59.7246" stroke="#D83E58" stroke-width="2.2223" stroke-linecap="round"/>
<path d="M209.216 60.6965L224.911 65.28" stroke="#D83E58" stroke-width="2.2223" stroke-linecap="round"/>
<path d="M208.661 66.3914L224.911 71.3915" stroke="#D83E58" stroke-width="2.2223" stroke-linecap="round"/>
<path d="M207.688 71.6694L223.8 76.5307" stroke="#D83E58" stroke-width="2.2223" stroke-linecap="round"/>
<path fill-rule="evenodd" clip-rule="evenodd" d="M79.351 22.5009C67.9617 25.5565 56.5724 104.17 59.9059 106.67C63.2393 109.17 147.409 116.671 152.965 108.615C154.428 106.493 155.677 99.4192 157.303 90.2106C158.641 82.6367 160.233 73.6187 162.409 64.7245C164.565 55.9136 166.739 47.9412 168.55 41.3033C171.126 31.8556 172.965 25.1113 172.965 22.5009C172.965 18.0563 90.7402 19.4452 79.351 22.5009ZM86.5234 66.9359C87.3672 66.9359 88.0512 67.6199 88.0512 68.4637C88.0512 70.5924 87.0854 72.2751 86.2123 73.3665C85.846 73.8244 85.4809 74.1977 85.1775 74.4792C85.2711 74.915 85.4164 75.5099 85.6337 76.2183C86.12 77.8043 86.9603 79.9387 88.3713 82.1296C91.166 86.4692 96.2329 91.0986 105.488 92.0953C114.233 93.0371 121.499 89.7273 126.641 86.102C129.207 84.2925 131.22 82.4209 132.588 81.0037C133.271 80.296 133.791 79.7042 134.137 79.2937C134.011 78.8418 133.887 78.2422 133.845 77.5407C133.752 75.9595 134.087 73.8666 135.73 71.8583C136.264 71.2052 137.227 71.109 137.88 71.6433C138.533 72.1776 138.629 73.1402 138.095 73.7932C137.03 75.0941 136.838 76.3854 136.896 77.3613C136.925 77.859 137.021 78.2762 137.107 78.5631C137.149 78.7056 137.189 78.8126 137.214 78.8776L137.225 78.9031L137.236 78.9208C137.27 78.9746 137.33 79.0626 137.415 79.1711C137.588 79.3902 137.857 79.6781 138.227 79.9395C138.925 80.4322 140.079 80.9063 141.91 80.4625C142.73 80.2637 143.556 80.7673 143.754 81.5873C143.953 82.4074 143.45 83.2333 142.63 83.4321C139.877 84.0994 137.826 83.3971 136.464 82.4355C136.245 82.2806 136.046 82.1209 135.867 81.9623C135.562 82.3044 135.201 82.6964 134.786 83.126C133.316 84.6485 131.159 86.6551 128.402 88.5993C122.896 92.4815 114.894 96.1817 105.16 95.1334C94.861 94.0242 89.0235 88.7859 85.8023 83.7841C84.2053 81.3043 83.2598 78.8996 82.7123 77.1142C82.6158 76.7996 82.5315 76.5037 82.458 76.2291C82.1514 76.3598 81.8159 76.4836 81.4581 76.5872C79.6867 77.0999 77.1931 77.1376 75.1647 74.9064C74.5971 74.282 74.6431 73.3158 75.2675 72.7482C75.8918 72.1806 76.8581 72.2266 77.4257 72.8509C78.4056 73.9288 79.522 73.9665 80.6084 73.652C81.1658 73.4907 81.6679 73.2421 82.0385 73.0253C82.2207 72.9187 82.3636 72.8241 82.457 72.7593C82.5035 72.727 82.5372 72.7025 82.5568 72.688L82.5751 72.6742L82.5752 72.6741L82.6044 72.6512L82.6338 72.6306L82.6427 72.6241C82.6544 72.6155 82.6758 72.5995 82.7058 72.5762C82.7657 72.5295 82.8587 72.4544 82.9737 72.3529C83.2054 72.1482 83.5167 71.8446 83.8262 71.4577C84.4572 70.669 84.9956 69.6442 84.9956 68.4637C84.9956 67.6199 85.6796 66.9359 86.5234 66.9359ZM114.352 63.9349C111.856 63.6853 109.854 64.0704 108.275 64.8953C106.697 65.7196 105.653 66.9235 104.973 68.1245C104.3 69.3143 103.974 70.5155 103.813 71.4006C103.731 71.8474 103.69 72.2257 103.669 72.4983C103.659 72.6349 103.653 72.7459 103.65 72.8268C103.649 72.8673 103.648 72.9003 103.647 72.9253L103.647 72.9568L103.647 72.9679L103.647 72.9723L103.647 72.9742C103.647 72.9751 103.647 72.9759 105.175 72.9759H103.647C103.647 73.8197 104.331 74.5038 105.175 74.5038C106.017 74.5038 106.699 73.823 106.703 72.9821L106.703 72.9808L106.703 72.9788L106.703 72.9782C106.703 72.9714 106.703 72.9573 106.704 72.9363C106.705 72.8942 106.709 72.8252 106.716 72.7332C106.73 72.5487 106.759 72.2759 106.819 71.9472C106.94 71.2812 107.178 70.4329 107.633 69.6297C108.081 68.8378 108.73 68.1051 109.689 67.6039C110.648 67.1032 112.031 66.7738 114.048 66.9754C114.887 67.0594 115.636 66.4468 115.72 65.6072C115.804 64.7676 115.191 64.0189 114.352 63.9349ZM99.2975 40.9479C101.157 42.7737 103.257 46.7371 105.198 54.3898C105.405 55.2076 106.237 55.7025 107.055 55.495C107.872 55.2876 108.367 54.4563 108.16 53.6385C106.19 45.8736 103.926 41.21 101.438 38.7676C100.16 37.5128 98.7784 36.8007 97.3301 36.6228C95.8927 36.4463 94.558 36.8165 93.3991 37.4255C91.1406 38.6122 89.2918 40.8405 88.0635 42.6078C87.5274 43.379 87.0838 44.1005 86.7505 44.6759L83.8859 43.3391C83.1213 42.9823 82.2122 43.3129 81.8554 44.0775C81.4985 44.8421 81.8291 45.7513 82.5938 46.1081L86.7606 48.0526L88.1218 48.6878L88.7795 47.3386L88.7796 47.3384L88.78 47.3376L88.7841 47.3293L88.8043 47.2888C88.8232 47.2514 88.8525 47.1938 88.8919 47.1182C88.9707 46.967 89.0895 46.7446 89.2446 46.4698C89.5556 45.9186 90.0082 45.1637 90.5726 44.3517C91.7357 42.6784 93.2384 40.9617 94.8204 40.1305C95.5816 39.7305 96.2893 39.5736 96.9576 39.6557C97.615 39.7364 98.402 40.0686 99.2975 40.9479ZM122.778 54.34C124.719 46.6873 126.819 42.7239 128.678 40.8982C129.574 40.0189 130.361 39.6867 131.018 39.6059C131.686 39.5239 132.394 39.6808 133.155 40.0807C134.737 40.9119 136.24 42.6287 137.403 44.302C137.967 45.114 138.42 45.8689 138.731 46.42C138.886 46.6949 139.005 46.9173 139.084 47.0685C139.123 47.144 139.153 47.2017 139.171 47.239L139.192 47.2796L139.196 47.2879L139.196 47.2887L139.196 47.2889L139.854 48.6381L141.215 48.0029L145.382 46.0584C146.147 45.7015 146.477 44.7924 146.12 44.0278C145.764 43.2631 144.854 42.9325 144.09 43.2894L141.225 44.6262C140.892 44.0508 140.448 43.3293 139.912 42.558C138.684 40.7908 136.835 38.5624 134.577 37.3757C133.418 36.7668 132.083 36.3965 130.646 36.5731C129.197 36.7509 127.815 37.4631 126.537 38.7179C124.05 41.1603 121.785 45.8239 119.816 53.5887C119.608 54.4066 120.103 55.2378 120.921 55.4453C121.739 55.6528 122.57 55.1579 122.778 54.34ZM74.9772 65.0637C74.9772 66.0038 74.2151 66.7659 73.275 66.7659C72.3349 66.7659 71.5727 66.0038 71.5727 65.0637C71.5727 64.1236 72.3349 63.3614 73.275 63.3614C74.2151 63.3614 74.9772 64.1236 74.9772 65.0637ZM79.4832 63.9622C80.4234 63.9622 81.1855 63.2001 81.1855 62.26C81.1855 61.3199 80.4234 60.5577 79.4832 60.5577C78.5431 60.5577 77.781 61.3199 77.781 62.26C77.781 63.2001 78.5431 63.9622 79.4832 63.9622ZM79.9838 67.4667C79.9838 68.4069 79.2217 69.169 78.2816 69.169C77.3414 69.169 76.5793 68.4069 76.5793 67.4667C76.5793 66.5266 77.3414 65.7645 78.2816 65.7645C79.2217 65.7645 79.9838 66.5266 79.9838 67.4667ZM148.975 74.1435C148.096 74.1435 147.383 73.4306 147.383 72.5511C147.383 71.6716 148.096 70.9587 148.975 70.9587C149.855 70.9587 150.568 71.6716 150.568 72.5511C150.568 73.4306 149.855 74.1435 148.975 74.1435ZM141.575 69.9281C141.575 70.8076 142.288 71.5205 143.168 71.5205C144.047 71.5205 144.76 70.8076 144.76 69.9281C144.76 69.0486 144.047 68.3357 143.168 68.3357C142.288 68.3357 141.575 69.0486 141.575 69.9281ZM144.292 76.3914C143.412 76.3914 142.699 75.6784 142.699 74.799C142.699 73.9195 143.412 73.2065 144.292 73.2065C145.171 73.2065 145.884 73.9195 145.884 74.799C145.884 75.6784 145.171 76.3914 144.292 76.3914Z" fill="#D83E58"/>
<circle cx="56.9891" cy="114.587" r="2.36119" fill="#D83E58"/>
<circle cx="66.7118" cy="116.81" r="2.36119" fill="#D83E58"/>
<circle cx="76.4342" cy="118.199" r="2.36119" fill="#D83E58"/>
<path d="M39.5054 40.2793L45.0854 41.9804L45.163 41.726L45.2171 41.4657L39.5054 40.2793ZM43.0879 86.935L48.6311 88.7524L52.266 77.666L46.7228 75.8486L43.0879 86.935ZM49.6345 30.0832C51.5208 27.4714 50.9326 23.8249 48.3208 21.9386C45.709 20.0523 42.0625 20.6404 40.1762 23.2522L49.6345 30.0832ZM34.2104 29.8424C31.5146 28.0782 27.899 28.8334 26.1348 31.5292C24.3706 34.225 25.1258 37.8405 27.8216 39.6047L34.2104 29.8424ZM30.4472 36.8364C28.5458 34.2356 24.896 33.6686 22.2952 35.5701C19.6943 37.4715 19.1274 41.1213 21.0288 43.7222L30.4472 36.8364ZM31.3099 42.7257C28.6722 40.8758 25.0342 41.5145 23.1843 44.1522C21.3344 46.7899 21.973 50.4279 24.6108 52.2778L31.3099 42.7257ZM39.5054 40.2793C45.2171 41.4657 45.2169 41.4664 45.2167 41.4672C45.2167 41.4674 45.2166 41.4681 45.2165 41.4685C45.2163 41.4693 45.2162 41.47 45.216 41.4705C45.2158 41.4716 45.2157 41.4722 45.2157 41.4723C45.2156 41.4725 45.216 41.4707 45.2168 41.4669C45.2184 41.4593 45.2217 41.4439 45.2267 41.4211C45.2366 41.3753 45.2533 41.2997 45.2767 41.1974C45.3235 40.9923 45.3968 40.6812 45.4965 40.287C45.697 39.4951 45.9993 38.3874 46.4015 37.144C47.2486 34.5254 48.375 31.8271 49.6345 30.0832L40.1762 23.2522C37.8244 26.5086 36.2509 30.616 35.3008 33.5532C34.8044 35.0876 34.4339 36.4453 34.1861 37.4243C34.0618 37.9155 33.9672 38.3162 33.902 38.6017C33.8694 38.7445 33.8441 38.8589 33.8261 38.9417C33.8171 38.9831 33.8099 39.0166 33.8045 39.042C33.8018 39.0546 33.7996 39.0652 33.7978 39.0738C33.7969 39.078 33.7961 39.0817 33.7955 39.0849C33.7951 39.0865 33.7948 39.088 33.7946 39.0893C33.7944 39.09 33.7942 39.0909 33.7942 39.0912C33.794 39.0921 33.7938 39.0929 39.5054 40.2793ZM42.6998 35.3981L34.2104 29.8424L27.8216 39.6047L36.311 45.1605L42.6998 35.3981ZM39.5054 40.2793C33.9254 38.5782 33.9254 38.5782 33.9254 38.5783C33.9254 38.5783 33.9254 38.5784 33.9253 38.5785C33.9253 38.5787 33.9252 38.579 33.9251 38.5794C33.9249 38.5801 33.9245 38.5812 33.9241 38.5827C33.9232 38.5857 33.9218 38.5901 33.92 38.596C33.9165 38.6077 33.9111 38.6251 33.9041 38.6481C33.8902 38.694 33.8695 38.7618 33.8427 38.8497C33.7891 39.0256 33.711 39.2817 33.6132 39.6029C33.4174 40.2454 33.1424 41.1483 32.8251 42.1902C32.1908 44.2738 31.3872 46.9149 30.7117 49.1416L41.8762 52.5288C42.5501 50.3077 43.3523 47.6709 43.9863 45.5884C44.3033 44.5474 44.5781 43.6453 44.7736 43.0034C44.8714 42.6825 44.9494 42.4267 45.0029 42.2511C45.0297 42.1634 45.0503 42.0956 45.0642 42.0499C45.0712 42.027 45.0765 42.0096 45.0801 41.9979C45.0819 41.9921 45.0832 41.9877 45.0841 41.9848C45.0845 41.9833 45.0849 41.9822 45.0851 41.9815C45.0852 41.9811 45.0853 41.9808 45.0854 41.9806C45.0854 41.9805 45.0854 41.9805 45.0854 41.9804C45.0854 41.9804 45.0854 41.9804 39.5054 40.2793ZM39.4582 45.9344C37.4361 44.6288 35.2126 42.457 33.3531 40.3723C32.4601 39.3711 31.7179 38.4664 31.2025 37.8163C30.9458 37.4925 30.7478 37.2351 30.6183 37.0644C30.5536 36.9791 30.5062 36.9158 30.4773 36.8769C30.4628 36.8574 30.4529 36.8441 30.4479 36.8373C30.4454 36.8338 30.444 36.832 30.4439 36.8319C30.4439 36.8318 30.4441 36.8321 30.4447 36.8329C30.4449 36.8333 30.4453 36.8337 30.4457 36.8343C30.4459 36.8346 30.4463 36.8352 30.4464 36.8353C30.4468 36.8358 30.4472 36.8364 25.738 40.2793C21.0288 43.7222 21.0293 43.7228 21.0298 43.7234C21.0299 43.7237 21.0304 43.7244 21.0308 43.7249C21.0316 43.7259 21.0324 43.727 21.0333 43.7283C21.0351 43.7308 21.0373 43.7337 21.0397 43.737C21.0446 43.7437 21.0508 43.7521 21.0582 43.7622C21.0731 43.7823 21.093 43.8092 21.1178 43.8425C21.1673 43.9091 21.2364 44.0013 21.3238 44.1166C21.4986 44.3469 21.7473 44.67 22.0602 45.0646C22.6839 45.8514 23.5726 46.9347 24.6465 48.1386C26.7208 50.464 29.7753 53.5702 33.1297 55.736L39.4582 45.9344ZM30.5521 49.8052C30.3899 50.7091 30.1495 51.7643 29.8455 53.0631C29.5524 54.3148 29.2063 55.7684 28.8934 57.2746C28.2717 60.2663 27.6954 63.8425 27.8368 67.4857C27.98 71.1741 28.8693 75.2052 31.4201 78.8372C34.0006 82.5115 37.8997 85.2339 43.0879 86.935L46.7228 75.8486C43.4385 74.7718 41.8318 73.3622 40.9677 72.1318C40.0739 70.8591 39.5797 69.2129 39.4951 67.0331C39.4087 64.8079 39.7602 62.3249 40.3164 59.6481C40.5924 58.32 40.8977 57.0369 41.2054 55.7224C41.5021 54.4548 41.8118 53.1141 42.0358 51.8652L30.5521 49.8052ZM37.1275 45.0615C35.7028 44.8558 34.2338 44.2948 33.0234 43.6959C32.4422 43.4083 31.9744 43.1389 31.6658 42.9507C31.5127 42.8573 31.4023 42.786 31.3403 42.7453C31.3094 42.7249 31.2909 42.7124 31.2855 42.7087C31.2828 42.7069 31.2835 42.7073 31.2875 42.7101C31.2895 42.7115 31.2924 42.7135 31.2961 42.7161C31.298 42.7174 31.3 42.7188 31.3023 42.7204C31.3035 42.7212 31.3047 42.7221 31.306 42.723C31.3066 42.7234 31.3076 42.7241 31.3079 42.7243C31.3089 42.725 31.3099 42.7257 27.9603 47.5018C24.6108 52.2778 24.6118 52.2785 24.6129 52.2793C24.6132 52.2795 24.6143 52.2803 24.6151 52.2808C24.6166 52.2818 24.6181 52.2829 24.6197 52.2841C24.623 52.2863 24.6264 52.2887 24.6302 52.2913C24.6376 52.2965 24.646 52.3024 24.6554 52.3088C24.6742 52.3218 24.6968 52.3374 24.7233 52.3553C24.7761 52.3913 24.8442 52.437 24.9267 52.4913C25.0915 52.5998 25.3151 52.7432 25.591 52.9115C26.1405 53.2466 26.9107 53.6885 27.8494 54.1529C29.6786 55.058 32.3765 56.1637 35.4604 56.6089L37.1275 45.0615Z" fill="#D83E58"/>
<path d="M231.856 50.0021C231.856 50.0021 231.456 40.5573 227.845 35.5571M231.856 50.0021L240.346 44.4463M231.856 50.0021C231.856 50.0021 232.729 56.1102 234.078 60.558M191.577 72.225C217.411 96.9481 234.078 70.8361 234.078 60.558M234.078 60.558C239.455 57.0865 245.624 50.0021 245.624 50.0021M234.078 60.558C238.587 59.9071 243.401 57.2245 243.401 57.2245" stroke="#D83E58" stroke-width="11.6671" stroke-linecap="round"/>
<path d="M11.8194 18.6438C9.51535 16.4301 5.99802 16.0908 4.47298 17.5496C2.94794 19.0085 4.22811 22.6555 5.94228 23.9928C8.91709 26.3135 15.7376 26.6673 15.7376 26.6673C15.7376 26.6673 14.145 20.878 11.8194 18.6438Z" fill="#D83E58" stroke="#D83E58" stroke-width="2.77787" stroke-linecap="round"/>
<path d="M6.47436 35.7648C4.01855 35.7857 1.90274 37.4888 1.84812 39.11C1.7935 40.7312 4.45651 42.0483 6.11723 41.8625C8.99927 41.5401 12.9387 38.0705 12.9387 38.0705C12.9387 38.0705 8.95301 35.7436 6.47436 35.7648Z" fill="#D83E58" stroke="#D83E58" stroke-width="2.77787" stroke-linecap="round"/>
<path d="M241.763 87.1968C242.779 90.2259 245.739 92.156 247.767 91.5696C249.794 90.9833 250.349 87.1581 249.449 85.1789C247.888 81.7441 242.007 78.271 242.007 78.271C242.007 78.271 240.737 84.1394 241.763 87.1968Z" fill="#D83E58" stroke="#D83E58" stroke-width="2.77787" stroke-linecap="round"/>
<path d="M254.431 74.4998C256.617 75.6189 259.282 75.0897 260.081 73.6782C260.88 72.2668 259.13 69.8659 257.573 69.2612C254.869 68.2118 249.771 69.4617 249.771 69.4617C249.771 69.4617 252.225 73.3703 254.431 74.4998Z" fill="#D83E58" stroke="#D83E58" stroke-width="2.77787" stroke-linecap="round"/>
<path d="M238.801 0.147839C238.798 1.16603 238.621 7.24998 234.836 11.0355C231.027 14.8448 224.89 15.0001 223.93 15.0005C224.89 15.0009 231.027 15.1562 234.836 18.9655C238.621 22.751 238.798 28.835 238.801 29.8532C238.803 28.835 238.98 22.751 242.766 18.9655C246.575 15.1562 252.712 15.0009 253.672 15.0005C253.495 15.0004 253.141 14.9951 252.658 14.9625C250.526 14.8183 245.872 14.1418 242.766 11.0355C238.98 7.24998 238.803 1.16603 238.801 0.147839Z" fill="#D83E58"/>
<path d="M257.551 25.9312C257.55 26.6005 257.434 30.6002 254.945 33.0888C252.441 35.5931 248.406 35.6952 247.775 35.6954C248.406 35.6957 252.441 35.7978 254.945 38.302C257.434 40.7907 257.55 44.7903 257.551 45.4597C257.553 44.7903 257.669 40.7907 260.158 38.302C262.662 35.7978 266.696 35.6957 267.328 35.6954C267.211 35.6954 266.979 35.6919 266.662 35.6704C265.259 35.5757 262.2 35.1309 260.158 33.0888C257.669 30.6002 257.553 26.6005 257.551 25.9312Z" fill="#D83E58"/>
<path d="M16.0154 85.984C16.013 87.0022 15.8361 93.0862 12.0504 96.8717C8.24119 100.681 2.10466 100.836 1.14421 100.837C2.10466 100.837 8.24119 100.992 12.0504 104.802C15.8361 108.587 16.013 114.671 16.0154 115.689C16.0179 114.671 16.1948 108.587 19.9804 104.802C23.7897 100.992 29.9261 100.837 30.8866 100.837C30.7093 100.837 30.3558 100.831 29.8731 100.799C27.7404 100.654 23.0866 99.9779 19.9804 96.8717C16.1948 93.0862 16.0179 87.0022 16.0154 85.984Z" fill="#D83E58"/>
<path d="M31.1549 114.823C31.1533 115.493 31.037 119.492 28.5483 121.981C26.0441 124.485 22.0099 124.587 21.3785 124.588C22.0099 124.588 26.0441 124.69 28.5483 127.194C31.037 129.683 31.1533 133.682 31.1549 134.352C31.1565 133.682 31.2729 129.683 33.7615 127.194C36.2658 124.69 40.2999 124.588 40.9313 124.588C40.8148 124.587 40.5824 124.584 40.265 124.563C38.863 124.468 35.8036 124.023 33.7615 121.981C31.2729 119.492 31.1565 115.493 31.1549 114.823Z" fill="#D83E58"/>
</svg>
